<svg width="549" height="248" viewBox="0 0 549 248" fill="none" xmlns="http://www.w3.org/2000/svg">
<path d="M-19.9975 142.097C95.1803 106.345 156.054 107.638 255.819 221.814C355.584 335.99 515.389 239.985 556.844 227.73" stroke="white" stroke-opacity="0.1"/>
<path d="M-33.6671 187.105C135.946 133.957 182.253 201.978 242.95 265.166C303.646 328.355 412.674 362.372 531.886 324.889" stroke="white" stroke-opacity="0.1"/>
<path d="M-25.9252 262.718C59.7504 215.35 130.92 151.58 192.172 306.207C253.423 460.833 425.343 449.959 462.13 427.257" stroke="white" stroke-opacity="0.1"/>
<path d="M561.939 77.9729C455.817 127.371 426.348 147.79 286.261 37.2442C146.173 -73.3015 34.2298 53.5954 -4.04606 70.7853" stroke="white" stroke-opacity="0.1"/>
<path d="M569.221 32.9008C413.009 106.125 359.604 46.7355 292.989 -6.13081C226.374 -58.9971 117.075 -77.5067 7.29811 -25.9188" stroke="white" stroke-opacity="0.1"/>
<path d="M551.919 -38.8168C475.687 17.9089 415.544 88.5196 336.479 -52.2225C257.414 -192.965 93.4736 -160.1 61.0486 -133.47" stroke="white" stroke-opacity="0.1"/>
</svg>
